# This file uses centimeters as units for non-parametric coordinates.

mtllib HG_3.mtl
g default
v -0.362401 0.295146 -0.106284
v -0.049600 -0.008169 -0.106284
v -0.362401 0.650322 -0.106284
v -0.049600 0.304633 -0.106284
v -0.169538 0.108132 -0.106284
v -0.169538 0.437181 -0.106284
v -0.169538 -0.275615 -0.106284
v -0.049600 -0.391916 -0.106284
v 0.347578 0.295146 -0.106284
v 0.034777 -0.008169 -0.106284
v 0.347578 0.650322 -0.106284
v 0.034777 0.304633 -0.106284
v 0.154715 0.108132 -0.106284
v 0.154715 0.437181 -0.106284
v 0.154715 -0.275615 -0.106284
v 0.034777 -0.391916 -0.106284
v -0.239457 -0.495234 -0.106284
v 0.218571 -0.495253 -0.106284
v -0.325727 -0.650305 -0.106284
v 0.309775 -0.650322 -0.106284
v -0.473218 -0.092165 -0.106284
v -0.630856 -0.092165 -0.106284
v 0.468285 -0.092165 -0.106284
v 0.630856 -0.092165 -0.106284
v -0.362401 0.295146 0.106284
v -0.169538 0.108132 0.106284
v -0.169538 0.437181 0.106284
v -0.362401 0.650322 0.106284
v -0.049600 -0.008169 0.106284
v -0.049600 0.304633 0.106284
v -0.169538 -0.275615 0.106284
v -0.049600 -0.391916 0.106284
v 0.347578 0.295146 0.106284
v 0.347578 0.650322 0.106284
v 0.154715 0.437181 0.106284
v 0.154715 0.108132 0.106284
v 0.034777 0.304633 0.106284
v 0.034777 -0.008169 0.106284
v 0.034777 -0.391916 0.106284
v 0.154715 -0.275615 0.106284
v -0.239457 -0.495234 0.106284
v -0.325727 -0.650305 0.106284
v 0.309775 -0.650322 0.106284
v 0.218571 -0.495253 0.106284
v -0.473218 -0.092165 0.106284
v -0.630856 -0.092165 0.106284
v 0.630856 -0.092165 0.106284
v 0.468285 -0.092165 0.106284
vt 0.000000 0.000000
vt 1.000000 0.000000
vt 0.000000 1.000000
vt 1.000000 1.000000
vt 0.616567 0.000000
vt 0.616567 1.000000
vt 0.000000 0.000000
vt 1.000000 0.000000
vt 1.000000 1.000000
vt 0.000000 1.000000
vt 0.000000 0.000000
vt 0.616567 0.000000
vt 0.616567 1.000000
vt 0.000000 1.000000
vt 1.000000 0.000000
vt 1.000000 1.000000
vt 0.000000 0.000000
vt 1.000000 0.000000
vt 1.000000 1.000000
vt 0.000000 1.000000
vt 0.000000 0.000000
vt 0.616567 0.000000
vt 0.616567 1.000000
vt 0.000000 1.000000
vt 0.000000 0.000000
vt 1.000000 0.000000
vt 1.000000 1.000000
vt 0.000000 1.000000
vt 0.000000 0.000000
vt 1.000000 0.000000
vt 1.000000 1.000000
vt 0.000000 1.000000
vt 0.000000 0.000000
vt 0.616567 0.000000
vt 0.616567 1.000000
vt 0.000000 1.000000
vt 1.000000 0.000000
vt 1.000000 1.000000
vt 0.000000 0.000000
vt 1.000000 0.000000
vt 1.000000 1.000000
vt 0.000000 1.000000
vt 0.000000 0.000000
vt 0.000000 1.000000
vt 0.616567 1.000000
vt 0.616567 0.000000
vt 1.000000 1.000000
vt 1.000000 0.000000
vt 0.000000 0.000000
vt 0.000000 1.000000
vt 1.000000 1.000000
vt 1.000000 0.000000
vt 0.000000 0.000000
vt 0.616567 0.000000
vt 0.616567 1.000000
vt 0.000000 1.000000
vt 0.000000 0.000000
vt 1.000000 0.000000
vt 1.000000 1.000000
vt 0.000000 1.000000
vt 0.000000 0.000000
vt 1.000000 0.000000
vt 1.000000 1.000000
vt 0.000000 1.000000
vt 0.000000 0.000000
vt 0.616567 0.000000
vt 0.616567 1.000000
vt 0.000000 1.000000
vt 1.000000 0.000000
vt 1.000000 1.000000
vt 1.000000 0.000000
vt 1.000000 1.000000
vt 0.000000 1.000000
vt 0.000000 0.000000
vt 0.000000 0.000000
vt 0.000000 1.000000
vt 0.616567 1.000000
vt 0.616567 0.000000
vt 1.000000 1.000000
vt 1.000000 0.000000
vt 0.000000 0.000000
vt 0.000000 1.000000
vt 1.000000 1.000000
vt 1.000000 0.000000
vt 0.616567 0.000000
vt 0.616567 1.000000
vt 0.000000 1.000000
vt 0.000000 0.000000
vt 1.000000 0.000000
vt 1.000000 1.000000
vt 0.000000 1.000000
vt 0.000000 0.000000
vt 1.000000 0.000000
vt 1.000000 1.000000
vt 0.000000 1.000000
vt 0.000000 0.000000
vn 0.000000 0.000000 1.000000
vn -0.000000 0.000000 1.000000
vn -0.000000 0.000000 1.000000
vn 0.000000 0.000000 1.000000
vn -0.000000 0.000000 1.000000
vn -0.000000 0.000000 1.000000
vn 0.000000 0.000000 1.000000
vn 0.000000 0.000000 1.000000
vn 0.000000 0.000000 1.000000
vn 0.000000 0.000000 1.000000
vn 0.000000 0.000000 1.000000
vn 0.000000 0.000000 1.000000
vn 0.000000 0.000000 1.000000
vn 0.000000 0.000000 1.000000
vn 0.000000 0.000000 1.000000
vn 0.000000 0.000000 1.000000
vn -0.000000 0.000000 1.000000
vn -0.000000 0.000000 1.000000
vn 0.000000 0.000000 1.000000
vn 0.000000 0.000000 1.000000
vn -0.000000 0.000000 1.000000
vn -0.000000 0.000000 1.000000
vn 0.000000 0.000000 1.000000
vn 0.000000 0.000000 1.000000
vn 0.000000 0.000000 -1.000000
vn 0.000000 0.000000 -1.000000
vn -0.000000 0.000000 -1.000000
vn -0.000000 0.000000 -1.000000
vn -0.000000 0.000000 -1.000000
vn -0.000000 0.000000 -1.000000
vn -0.000000 0.000000 -1.000000
vn -0.000000 0.000000 -1.000000
vn 0.000000 0.000000 -1.000000
vn 0.000000 0.000000 -1.000000
vn 0.000000 0.000000 -1.000000
vn 0.000000 0.000000 -1.000000
vn 0.000000 0.000000 -1.000000
vn 0.000000 0.000000 -1.000000
vn 0.000000 0.000000 -1.000000
vn 0.000000 0.000000 -1.000000
vn -0.000000 0.000000 -1.000000
vn 0.000000 0.000000 -1.000000
vn 0.000000 0.000000 -1.000000
vn -0.000000 0.000000 -1.000000
vn -0.000000 0.000000 -1.000000
vn -0.000000 0.000000 -1.000000
vn 0.000000 0.000000 -1.000000
vn 0.000000 0.000000 -1.000000
vn -0.696135 -0.717911 0.000000
vn -0.696135 -0.717911 0.000000
vn -0.696135 -0.717911 0.000000
vn -0.696135 -0.717911 0.000000
vn 0.741499 0.670954 0.000000
vn 0.741499 0.670954 0.000000
vn 0.741499 0.670954 0.000000
vn 0.741499 0.670954 0.000000
vn -1.000000 0.000000 0.000000
vn -1.000000 0.000000 0.000000
vn -1.000000 0.000000 0.000000
vn -1.000000 0.000000 0.000000
vn 1.000000 0.000000 0.000000
vn 1.000000 0.000000 0.000000
vn 1.000000 0.000000 0.000000
vn 1.000000 0.000000 0.000000
vn 0.741498 0.670955 0.000000
vn 0.741498 0.670955 0.000000
vn -1.000000 0.000000 0.000000
vn -1.000000 0.000000 0.000000
vn -1.000000 0.000000 0.000000
vn -1.000000 0.000000 0.000000
vn -0.696137 -0.717909 0.000000
vn -0.696137 -0.717909 0.000000
vn -0.696137 -0.717909 0.000000
vn -0.696137 -0.717909 0.000000
vn 1.000000 0.000000 0.000000
vn 1.000000 0.000000 0.000000
vn 1.000000 0.000000 0.000000
vn 1.000000 0.000000 0.000000
vn 1.000000 0.000000 0.000000
vn 1.000000 0.000000 0.000000
vn -0.741499 0.670954 0.000000
vn -0.741499 0.670955 0.000000
vn -0.741499 0.670955 0.000000
vn -0.741499 0.670954 0.000000
vn 0.696135 -0.717911 0.000000
vn 0.696135 -0.717911 0.000000
vn 0.696135 -0.717911 0.000000
vn 0.696135 -0.717911 0.000000
vn -0.741498 0.670955 0.000000
vn -0.741498 0.670955 0.000000
vn -1.000000 0.000000 0.000000
vn -1.000000 0.000000 0.000000
vn -1.000000 0.000000 0.000000
vn -1.000000 0.000000 0.000000
vn -1.000000 0.000000 0.000000
vn -1.000000 0.000000 0.000000
vn 0.696137 -0.717909 0.000000
vn 0.696137 -0.717909 0.000000
vn 0.696137 -0.717909 0.000000
vn 0.696137 -0.717909 0.000000
vn 1.000000 0.000000 0.000000
vn 1.000000 0.000000 0.000000
vn 1.000000 0.000000 0.000000
vn 1.000000 0.000000 0.000000
vn -0.000027 -1.000000 0.000000
vn -0.000027 -1.000000 0.000000
vn -0.000027 -1.000000 0.000000
vn -0.000027 -1.000000 0.000000
vn 0.000043 1.000000 0.000000
vn 0.000043 1.000000 0.000000
vn 0.000043 1.000000 0.000000
vn 0.000043 1.000000 0.000000
vn 0.865048 0.501688 0.000000
vn 0.865048 0.501688 0.000000
vn 0.865048 0.501688 0.000000
vn 0.865048 0.501688 0.000000
vn 0.000003 1.000000 0.000000
vn 0.000003 1.000000 0.000000
vn 0.000003 1.000000 0.000000
vn 0.000003 1.000000 0.000000
vn -0.877441 -0.479685 0.000000
vn -0.877441 -0.479685 0.000000
vn -0.877441 -0.479685 0.000000
vn -0.877441 -0.479685 0.000000
vn 0.866812 -0.498635 0.000000
vn 0.866812 -0.498635 0.000000
vn 0.866812 -0.498635 0.000000
vn 0.866812 -0.498635 0.000000
vn 0.000000 1.000000 0.000000
vn 0.000000 1.000000 0.000000
vn 0.000000 1.000000 0.000000
vn 0.000000 1.000000 0.000000
vn -0.850092 0.526635 0.000000
vn -0.850092 0.526635 0.000000
vn -0.850092 0.526635 0.000000
vn -0.850092 0.526635 0.000000
s 1
g MAIN HG_3
usemtl initialShadingGroup
f 25/65/1 26/66/2 27/67/3 28/68/4
f 26/66/2 29/69/5 30/70/6 27/67/3
f 29/74/5 26/71/2 31/72/7 32/73/8
s 2
f 33/75/9 34/76/10 35/77/11 36/78/12
f 36/78/12 35/77/11 37/79/13 38/80/14
f 38/81/14 39/82/15 40/83/16 36/84/12
s 3
f 41/88/17 42/85/18 43/86/19 44/87/20
f 42/92/18 41/89/17 45/90/21 46/91/22
f 44/96/20 43/93/19 47/94/23 48/95/24
s 4
f 1/33/25 3/36/26 6/35/27 5/34/28
f 5/34/28 6/35/27 4/38/29 2/37/30
f 2/39/30 8/42/31 7/41/32 5/40/28
s 5
f 9/43/33 13/46/34 14/45/35 11/44/36
f 13/46/34 10/48/37 12/47/38 14/45/35
f 10/49/37 13/52/34 15/51/39 16/50/40
s 6
f 17/53/41 18/56/42 20/55/43 19/54/44
f 19/57/44 22/60/45 21/59/46 17/58/41
f 18/61/42 23/64/47 24/63/48 20/62/43
s off
f 1/1/49 5/5/50 26/66/51 25/65/52
s 7
f 6/6/53 3/3/54 28/68/55 27/67/56
s off
f 3/3/57 1/1/58 25/65/59 28/68/60
s 8
f 2/2/61 4/4/62 30/70/63 29/69/64
s 7
f 4/4/65 6/6/53 27/67/56 30/70/66
s off
f 5/8/67 7/9/68 31/72/69 26/71/70
f 7/9/71 8/10/72 32/73/73 31/72/74
s 8
f 8/10/75 2/7/61 29/74/64 32/73/76
s off
f 9/11/77 11/14/78 34/76/79 33/75/80
s 9
f 11/14/81 14/13/82 35/77/83 34/76/84
s off
f 13/12/85 9/11/86 33/75/87 36/78/88
s 9
f 14/13/82 12/16/89 37/79/90 35/77/83
s 10
f 12/16/91 10/15/92 38/80/93 37/79/94
f 10/17/92 16/20/95 39/82/96 38/81/93
s off
f 16/20/97 15/19/98 40/83/99 39/82/100
f 15/19/101 13/18/102 36/84/103 40/83/104
f 19/22/105 20/23/106 43/86/107 42/85/108
f 18/24/109 17/21/110 41/88/111 44/87/112
f 17/26/113 21/27/114 45/90/115 41/89/116
f 21/27/117 22/28/118 46/91/119 45/90/120
f 22/28/121 19/25/122 42/92/123 46/91/124
f 20/30/125 24/31/126 47/94/127 43/93/128
f 24/31/129 23/32/130 48/95/131 47/94/132
f 23/32/133 18/29/134 44/96/135 48/95/136
