# This file uses centimeters as units for non-parametric coordinates.

mtllib HG_5.mtl
g default
v -0.238009 0.481625 -0.106284
v 0.219601 0.481625 -0.106284
v -0.290633 0.579614 -0.106284
v 0.283939 0.579614 -0.106284
v -0.536104 0.034690 -0.106284
v -0.307299 0.430992 -0.106284
v -0.647278 0.038111 -0.106284
v -0.359991 0.535705 -0.106284
v -0.298095 -0.446935 -0.106284
v -0.526899 -0.050633 -0.106284
v -0.356644 -0.541503 -0.106284
v -0.643929 -0.043909 -0.106284
v 0.238009 -0.481626 -0.106284
v -0.219601 -0.481625 -0.106284
v 0.290633 -0.579615 -0.106284
v -0.283939 -0.579614 -0.106284
v 0.536104 -0.034691 -0.106284
v 0.307299 -0.430993 -0.106284
v 0.647277 -0.038112 -0.106284
v 0.359991 -0.535706 -0.106284
v 0.298095 0.446934 -0.106284
v 0.526899 0.050632 -0.106284
v 0.356644 0.541503 -0.106284
v 0.643930 0.043909 -0.106284
v -0.238009 0.481625 0.106284
v 0.219601 0.481625 0.106284
v 0.283939 0.579614 0.106284
v -0.290633 0.579614 0.106284
v -0.536104 0.034690 0.106284
v -0.307299 0.430992 0.106284
v -0.359991 0.535705 0.106284
v -0.647278 0.038111 0.106284
v -0.298095 -0.446935 0.106284
v -0.526899 -0.050633 0.106284
v -0.643929 -0.043909 0.106284
v -0.356644 -0.541503 0.106284
v 0.238009 -0.481626 0.106284
v -0.219601 -0.481625 0.106284
v -0.283939 -0.579614 0.106284
v 0.290633 -0.579615 0.106284
v 0.536104 -0.034691 0.106284
v 0.307299 -0.430993 0.106284
v 0.359991 -0.535706 0.106284
v 0.647277 -0.038112 0.106284
v 0.298095 0.446934 0.106284
v 0.526899 0.050632 0.106284
v 0.643930 0.043909 0.106284
v 0.356644 0.541503 0.106284
vt 0.000000 0.000000
vt 1.000000 0.000000
vt 0.000000 1.000000
vt 1.000000 1.000000
vt 0.000000 0.000000
vt 1.000000 0.000000
vt 1.000000 1.000000
vt 0.000000 1.000000
vt 0.000000 0.000000
vt 1.000000 0.000000
vt 1.000000 1.000000
vt 0.000000 1.000000
vt 0.000000 0.000000
vt 1.000000 0.000000
vt 1.000000 1.000000
vt 0.000000 1.000000
vt 0.000000 0.000000
vt 1.000000 0.000000
vt 1.000000 1.000000
vt 0.000000 1.000000
vt 0.000000 0.000000
vt 1.000000 0.000000
vt 1.000000 1.000000
vt 0.000000 1.000000
vt 0.000000 0.000000
vt 1.000000 0.000000
vt 1.000000 1.000000
vt 0.000000 1.000000
vt 0.000000 0.000000
vt 1.000000 0.000000
vt 1.000000 1.000000
vt 0.000000 1.000000
vt 0.000000 0.000000
vt 1.000000 0.000000
vt 1.000000 1.000000
vt 0.000000 1.000000
vt 0.000000 0.000000
vt 1.000000 0.000000
vt 1.000000 1.000000
vt 0.000000 1.000000
vt 0.000000 0.000000
vt 1.000000 0.000000
vt 1.000000 1.000000
vt 0.000000 1.000000
vt 0.000000 0.000000
vt 1.000000 0.000000
vt 1.000000 1.000000
vt 0.000000 1.000000
vt 0.000000 0.000000
vt 1.000000 0.000000
vt 1.000000 1.000000
vt 0.000000 1.000000
vt 0.000000 0.000000
vt 1.000000 0.000000
vt 1.000000 1.000000
vt 0.000000 1.000000
vt 0.000000 0.000000
vt 1.000000 0.000000
vt 1.000000 1.000000
vt 0.000000 1.000000
vt 0.000000 0.000000
vt 1.000000 0.000000
vt 1.000000 1.000000
vt 0.000000 1.000000
vt 0.000000 0.000000
vt 1.000000 0.000000
vt 1.000000 1.000000
vt 0.000000 1.000000
vt 0.000000 0.000000
vt 1.000000 0.000000
vt 1.000000 1.000000
vt 0.000000 1.000000
vn 0.000000 0.000000 1.000000
vn 0.000000 0.000000 1.000000
vn 0.000000 0.000000 1.000000
vn 0.000000 0.000000 1.000000
vn 0.000000 0.000000 1.000000
vn 0.000000 0.000000 1.000000
vn 0.000000 0.000000 1.000000
vn 0.000000 0.000000 1.000000
vn 0.000000 0.000000 1.000000
vn 0.000000 0.000000 1.000000
vn 0.000000 0.000000 1.000000
vn 0.000000 0.000000 1.000000
vn 0.000000 0.000000 1.000000
vn 0.000000 0.000000 1.000000
vn 0.000000 0.000000 1.000000
vn 0.000000 0.000000 1.000000
vn 0.000000 0.000000 1.000000
vn 0.000000 0.000000 1.000000
vn 0.000000 0.000000 1.000000
vn 0.000000 0.000000 1.000000
vn -0.000000 0.000000 1.000000
vn -0.000000 0.000000 1.000000
vn -0.000000 0.000000 1.000000
vn -0.000000 0.000000 1.000000
vn 0.000000 0.000000 -1.000000
vn 0.000000 0.000000 -1.000000
vn 0.000000 0.000000 -1.000000
vn 0.000000 0.000000 -1.000000
vn 0.000000 0.000000 -1.000000
vn 0.000000 0.000000 -1.000000
vn 0.000000 0.000000 -1.000000
vn 0.000000 0.000000 -1.000000
vn 0.000000 0.000000 -1.000000
vn 0.000000 0.000000 -1.000000
vn 0.000000 0.000000 -1.000000
vn 0.000000 0.000000 -1.000000
vn -0.000000 0.000000 -1.000000
vn -0.000000 0.000000 -1.000000
vn -0.000000 0.000000 -1.000000
vn -0.000000 0.000000 -1.000000
vn 0.000000 0.000000 -1.000000
vn 0.000000 0.000000 -1.000000
vn 0.000000 0.000000 -1.000000
vn 0.000000 0.000000 -1.000000
vn 0.000000 0.000000 -1.000000
vn 0.000000 0.000000 -1.000000
vn 0.000000 0.000000 -1.000000
vn 0.000000 0.000000 -1.000000
vn 0.000000 -1.000000 0.000000
vn 0.000000 -1.000000 0.000000
vn 0.000000 -1.000000 0.000000
vn 0.000000 -1.000000 0.000000
vn 0.835917 -0.548855 0.000000
vn 0.835917 -0.548855 0.000000
vn 0.835917 -0.548855 0.000000
vn 0.835917 -0.548855 0.000000
vn 0.000001 1.000000 0.000000
vn 0.000001 1.000000 0.000000
vn 0.000001 1.000000 0.000000
vn 0.000001 1.000000 0.000000
vn -0.880996 -0.473125 0.000000
vn -0.880996 -0.473125 0.000000
vn -0.880996 -0.473125 0.000000
vn -0.880996 -0.473125 0.000000
vn 0.866025 -0.500001 0.000000
vn 0.866025 -0.500001 0.000000
vn 0.866025 -0.500001 0.000000
vn 0.866025 -0.500001 0.000000
vn 0.893279 0.449503 0.000000
vn 0.893279 0.449503 0.000000
vn 0.893279 0.449503 0.000000
vn 0.893279 0.449503 0.000000
vn -0.866025 0.500001 0.000000
vn -0.866025 0.500001 0.000000
vn -0.866025 0.500001 0.000000
vn -0.866025 0.500001 0.000000
vn -0.030751 -0.999527 0.000000
vn -0.030751 -0.999527 0.000000
vn -0.030751 -0.999527 0.000000
vn -0.030751 -0.999527 0.000000
vn 0.866026 0.499999 0.000000
vn 0.866026 0.499999 0.000000
vn 0.866026 0.499999 0.000000
vn 0.866026 0.499999 0.000000
vn 0.057360 0.998354 0.000000
vn 0.057360 0.998354 0.000000
vn 0.057360 0.998354 0.000000
vn 0.057360 0.998354 0.000000
vn -0.866026 -0.499999 0.000000
vn -0.866026 -0.499999 0.000000
vn -0.866026 -0.499999 0.000000
vn -0.866026 -0.499999 0.000000
vn 0.850240 -0.526396 0.000000
vn 0.850240 -0.526396 0.000000
vn 0.850240 -0.526396 0.000000
vn 0.850240 -0.526396 0.000000
vn 0.000001 1.000000 0.000000
vn 0.000001 1.000000 0.000000
vn 0.000001 1.000000 0.000000
vn 0.000001 1.000000 0.000000
vn -0.835917 0.548855 0.000000
vn -0.835917 0.548855 0.000000
vn -0.835917 0.548855 0.000000
vn -0.835917 0.548855 0.000000
vn -0.000001 -1.000000 0.000000
vn -0.000001 -1.000000 0.000000
vn -0.000001 -1.000000 0.000000
vn -0.000001 -1.000000 0.000000
vn 0.880995 0.473127 0.000000
vn 0.880995 0.473127 0.000000
vn 0.880995 0.473127 0.000000
vn 0.880995 0.473127 0.000000
vn -0.866025 0.500000 0.000000
vn -0.866025 0.500000 0.000000
vn -0.866025 0.500000 0.000000
vn -0.866025 0.500000 0.000000
vn -0.893280 -0.449502 0.000000
vn -0.893280 -0.449502 0.000000
vn -0.893280 -0.449502 0.000000
vn -0.893280 -0.449502 0.000000
vn 0.866025 -0.500000 0.000000
vn 0.866025 -0.500000 0.000000
vn 0.866025 -0.500000 0.000000
vn 0.866025 -0.500000 0.000000
vn 0.030756 0.999527 0.000000
vn 0.030756 0.999527 0.000000
vn 0.030756 0.999527 0.000000
vn 0.030756 0.999527 0.000000
vn -0.866026 -0.499999 0.000000
vn -0.866026 -0.499999 0.000000
vn -0.866026 -0.499999 0.000000
vn -0.866026 -0.499999 0.000000
vn -0.057359 -0.998354 0.000000
vn -0.057359 -0.998354 0.000000
vn -0.057359 -0.998354 0.000000
vn -0.057359 -0.998354 0.000000
vn 0.866025 0.500000 0.000000
vn 0.866025 0.500000 0.000000
vn 0.866025 0.500000 0.000000
vn 0.866025 0.500000 0.000000
vn -0.850242 0.526393 0.000000
vn -0.850242 0.526393 0.000000
vn -0.850242 0.526393 0.000000
vn -0.850242 0.526393 0.000000
s off
g OUTER HG_5
usemtl initialShadingGroup
f 25/49/1 26/50/2 27/51/3 28/52/4
f 29/53/5 30/54/6 31/55/7 32/56/8
f 33/57/9 34/58/10 35/59/11 36/60/12
f 37/61/13 38/62/14 39/63/15 40/64/16
f 41/65/17 42/66/18 43/67/19 44/68/20
f 45/69/21 46/70/22 47/71/23 48/72/24
f 1/25/25 3/28/26 4/27/27 2/26/28
f 5/29/29 7/32/30 8/31/31 6/30/32
f 9/33/33 11/36/34 12/35/35 10/34/36
f 13/37/37 15/40/38 16/39/39 14/38/40
f 17/41/41 19/44/42 20/43/43 18/42/44
f 21/45/45 23/48/46 24/47/47 22/46/48
f 1/1/49 2/2/50 26/50/51 25/49/52
f 2/2/53 4/4/54 27/51/55 26/50/56
f 4/4/57 3/3/58 28/52/59 27/51/60
f 3/3/61 1/1/62 25/49/63 28/52/64
f 5/5/65 6/6/66 30/54/67 29/53/68
f 6/6/69 8/7/70 31/55/71 30/54/72
f 8/7/73 7/8/74 32/56/75 31/55/76
f 7/8/77 5/5/78 29/53/79 32/56/80
f 9/9/81 10/10/82 34/58/83 33/57/84
f 10/10/85 12/11/86 35/59/87 34/58/88
f 12/11/89 11/12/90 36/60/91 35/59/92
f 11/12/93 9/9/94 33/57/95 36/60/96
f 13/13/97 14/14/98 38/62/99 37/61/100
f 14/14/101 16/15/102 39/63/103 38/62/104
f 16/15/105 15/16/106 40/64/107 39/63/108
f 15/16/109 13/13/110 37/61/111 40/64/112
f 17/17/113 18/18/114 42/66/115 41/65/116
f 18/18/117 20/19/118 43/67/119 42/66/120
f 20/19/121 19/20/122 44/68/123 43/67/124
f 19/20/125 17/17/126 41/65/127 44/68/128
f 21/21/129 22/22/130 46/70/131 45/69/132
f 22/22/133 24/23/134 47/71/135 46/70/136
f 24/23/137 23/24/138 48/72/139 47/71/140
f 23/24/141 21/21/142 45/69/143 48/72/144
g default
v -0.101539 0.205469 -0.106284
v 0.093686 0.205469 -0.106284
v -0.160064 0.319219 -0.106284
v 0.156378 0.319218 -0.106284
v -0.228711 0.014800 -0.106284
v -0.131100 0.183868 -0.106284
v -0.356483 0.020989 -0.106284
v -0.198262 0.295036 -0.106284
v -0.127172 -0.190670 -0.106284
v -0.224785 -0.021601 -0.106284
v -0.196419 -0.298230 -0.106284
v -0.354639 -0.024183 -0.106284
v 0.101540 -0.205470 -0.106284
v -0.093685 -0.205470 -0.106284
v 0.160065 -0.319219 -0.106284
v -0.156378 -0.319219 -0.106284
v 0.228712 -0.014800 -0.106284
v 0.131100 -0.183869 -0.106284
v 0.356484 -0.020990 -0.106284
v 0.198262 -0.295036 -0.106284
v 0.127172 0.190670 -0.106284
v 0.224785 0.021601 -0.106284
v 0.196420 0.298229 -0.106284
v 0.354640 0.024182 -0.106284
v -0.101539 0.205469 0.106284
v 0.093686 0.205469 0.106284
v 0.156378 0.319218 0.106284
v -0.160064 0.319219 0.106284
v -0.228711 0.014800 0.106284
v -0.131100 0.183868 0.106284
v -0.198262 0.295036 0.106284
v -0.356483 0.020989 0.106284
v -0.127172 -0.190670 0.106284
v -0.224785 -0.021601 0.106284
v -0.354639 -0.024183 0.106284
v -0.196419 -0.298230 0.106284
v 0.101540 -0.205470 0.106284
v -0.093685 -0.205470 0.106284
v -0.156378 -0.319219 0.106284
v 0.160065 -0.319219 0.106284
v 0.228712 -0.014800 0.106284
v 0.131100 -0.183869 0.106284
v 0.198262 -0.295036 0.106284
v 0.356484 -0.020990 0.106284
v 0.127172 0.190670 0.106284
v 0.224785 0.021601 0.106284
v 0.354640 0.024182 0.106284
v 0.196420 0.298229 0.106284
vt 0.000000 0.000000
vt 1.000000 0.000000
vt 0.000000 1.000000
vt 1.000000 1.000000
vt 0.000000 0.000000
vt 1.000000 0.000000
vt 1.000000 1.000000
vt 0.000000 1.000000
vt 0.000000 0.000000
vt 1.000000 0.000000
vt 1.000000 1.000000
vt 0.000000 1.000000
vt 0.000000 0.000000
vt 1.000000 0.000000
vt 1.000000 1.000000
vt 0.000000 1.000000
vt 0.000000 0.000000
vt 1.000000 0.000000
vt 1.000000 1.000000
vt 0.000000 1.000000
vt 0.000000 0.000000
vt 1.000000 0.000000
vt 1.000000 1.000000
vt 0.000000 1.000000
vt 0.000000 0.000000
vt 1.000000 0.000000
vt 1.000000 1.000000
vt 0.000000 1.000000
vt 0.000000 0.000000
vt 1.000000 0.000000
vt 1.000000 1.000000
vt 0.000000 1.000000
vt 0.000000 0.000000
vt 1.000000 0.000000
vt 1.000000 1.000000
vt 0.000000 1.000000
vt 0.000000 0.000000
vt 1.000000 0.000000
vt 1.000000 1.000000
vt 0.000000 1.000000
vt 0.000000 0.000000
vt 1.000000 0.000000
vt 1.000000 1.000000
vt 0.000000 1.000000
vt 0.000000 0.000000
vt 1.000000 0.000000
vt 1.000000 1.000000
vt 0.000000 1.000000
vt 0.000000 0.000000
vt 1.000000 0.000000
vt 1.000000 1.000000
vt 0.000000 1.000000
vt 0.000000 0.000000
vt 1.000000 0.000000
vt 1.000000 1.000000
vt 0.000000 1.000000
vt 0.000000 0.000000
vt 1.000000 0.000000
vt 1.000000 1.000000
vt 0.000000 1.000000
vt 0.000000 0.000000
vt 1.000000 0.000000
vt 1.000000 1.000000
vt 0.000000 1.000000
vt 0.000000 0.000000
vt 1.000000 0.000000
vt 1.000000 1.000000
vt 0.000000 1.000000
vt 0.000000 0.000000
vt 1.000000 0.000000
vt 1.000000 1.000000
vt 0.000000 1.000000
vn 0.000000 0.000000 1.000000
vn 0.000000 0.000000 1.000000
vn 0.000000 0.000000 1.000000
vn 0.000000 0.000000 1.000000
vn 0.000000 0.000000 1.000000
vn 0.000000 0.000000 1.000000
vn 0.000000 0.000000 1.000000
vn 0.000000 0.000000 1.000000
vn -0.000000 0.000000 1.000000
vn -0.000000 0.000000 1.000000
vn -0.000000 0.000000 1.000000
vn -0.000000 0.000000 1.000000
vn 0.000000 0.000000 1.000000
vn 0.000000 0.000000 1.000000
vn 0.000000 0.000000 1.000000
vn 0.000000 0.000000 1.000000
vn -0.000000 0.000000 1.000000
vn -0.000000 0.000000 1.000000
vn -0.000000 0.000000 1.000000
vn -0.000000 0.000000 1.000000
vn 0.000000 0.000000 1.000000
vn 0.000000 0.000000 1.000000
vn 0.000000 0.000000 1.000000
vn 0.000000 0.000000 1.000000
vn 0.000000 0.000000 -1.000000
vn 0.000000 0.000000 -1.000000
vn 0.000000 0.000000 -1.000000
vn 0.000000 0.000000 -1.000000
vn -0.000000 0.000000 -1.000000
vn -0.000000 0.000000 -1.000000
vn -0.000000 0.000000 -1.000000
vn -0.000000 0.000000 -1.000000
vn -0.000000 0.000000 -1.000000
vn -0.000000 0.000000 -1.000000
vn -0.000000 0.000000 -1.000000
vn -0.000000 0.000000 -1.000000
vn -0.000000 0.000000 -1.000000
vn -0.000000 0.000000 -1.000000
vn -0.000000 0.000000 -1.000000
vn -0.000000 0.000000 -1.000000
vn -0.000000 0.000000 -1.000000
vn -0.000000 0.000000 -1.000000
vn -0.000000 0.000000 -1.000000
vn -0.000000 0.000000 -1.000000
vn 0.000000 0.000000 -1.000000
vn 0.000000 0.000000 -1.000000
vn 0.000000 0.000000 -1.000000
vn 0.000000 0.000000 -1.000000
vn 0.000000 -1.000000 0.000000
vn 0.000000 -1.000000 0.000000
vn 0.000000 -1.000000 0.000000
vn 0.000000 -1.000000 0.000000
vn 0.875794 -0.482685 0.000000
vn 0.875794 -0.482685 0.000000
vn 0.875794 -0.482685 0.000000
vn 0.875794 -0.482685 0.000000
vn 0.000002 1.000000 0.000000
vn 0.000002 1.000000 0.000000
vn 0.000002 1.000000 0.000000
vn 0.000002 1.000000 0.000000
vn -0.889207 -0.457505 0.000000
vn -0.889207 -0.457505 0.000000
vn -0.889207 -0.457505 0.000000
vn -0.889207 -0.457505 0.000000
vn 0.866027 -0.499998 0.000000
vn 0.866027 -0.499998 0.000000
vn 0.866027 -0.499998 0.000000
vn 0.866027 -0.499998 0.000000
vn 0.855919 0.517109 0.000000
vn 0.855919 0.517109 0.000000
vn 0.855919 0.517109 0.000000
vn 0.855919 0.517109 0.000000
vn -0.866025 0.500000 0.000000
vn -0.866025 0.500000 0.000000
vn -0.866025 0.500000 0.000000
vn -0.866025 0.500000 0.000000
vn -0.048384 -0.998829 0.000000
vn -0.048384 -0.998829 0.000000
vn -0.048384 -0.998829 0.000000
vn -0.048384 -0.998829 0.000000
vn 0.866025 0.500001 0.000000
vn 0.866025 0.500001 0.000000
vn 0.866025 0.500001 0.000000
vn 0.866025 0.500001 0.000000
vn -0.019880 0.999802 0.000000
vn -0.019880 0.999802 0.000000
vn -0.019880 0.999802 0.000000
vn -0.019880 0.999802 0.000000
vn -0.866026 -0.499998 0.000000
vn -0.866026 -0.499998 0.000000
vn -0.866026 -0.499998 0.000000
vn -0.866026 -0.499998 0.000000
vn 0.840820 -0.541315 0.000000
vn 0.840820 -0.541315 0.000000
vn 0.840820 -0.541315 0.000000
vn 0.840820 -0.541315 0.000000
vn 0.000002 1.000000 0.000000
vn 0.000002 1.000000 0.000000
vn 0.000002 1.000000 0.000000
vn 0.000002 1.000000 0.000000
vn -0.875791 0.482691 0.000000
vn -0.875791 0.482691 0.000000
vn -0.875791 0.482691 0.000000
vn -0.875791 0.482691 0.000000
vn -0.000002 -1.000000 0.000000
vn -0.000002 -1.000000 0.000000
vn -0.000002 -1.000000 0.000000
vn -0.000002 -1.000000 0.000000
vn 0.889207 0.457506 0.000000
vn 0.889207 0.457506 0.000000
vn 0.889207 0.457506 0.000000
vn 0.889207 0.457506 0.000000
vn -0.866024 0.500002 0.000000
vn -0.866024 0.500002 0.000000
vn -0.866024 0.500002 0.000000
vn -0.866024 0.500002 0.000000
vn -0.855919 -0.517109 0.000000
vn -0.855919 -0.517109 0.000000
vn -0.855919 -0.517109 0.000000
vn -0.855919 -0.517109 0.000000
vn 0.866024 -0.500002 0.000000
vn 0.866024 -0.500002 0.000000
vn 0.866024 -0.500002 0.000000
vn 0.866024 -0.500002 0.000000
vn 0.048388 0.998829 0.000000
vn 0.048388 0.998829 0.000000
vn 0.048388 0.998829 0.000000
vn 0.048388 0.998829 0.000000
vn -0.866024 -0.500002 0.000000
vn -0.866024 -0.500002 0.000000
vn -0.866024 -0.500002 0.000000
vn -0.866024 -0.500002 0.000000
vn 0.019877 -0.999803 0.000000
vn 0.019877 -0.999803 0.000000
vn 0.019877 -0.999803 0.000000
vn 0.019877 -0.999803 0.000000
vn 0.866026 0.499999 0.000000
vn 0.866026 0.499999 0.000000
vn 0.866026 0.499999 0.000000
vn 0.866026 0.499999 0.000000
vn -0.840817 0.541320 0.000000
vn -0.840817 0.541320 0.000000
vn -0.840817 0.541320 0.000000
vn -0.840817 0.541320 0.000000
s off
g HG_5 INNER
usemtl initialShadingGroup
f 73/121/145 74/122/146 75/123/147 76/124/148
f 77/125/149 78/126/150 79/127/151 80/128/152
f 81/129/153 82/130/154 83/131/155 84/132/156
f 85/133/157 86/134/158 87/135/159 88/136/160
f 89/137/161 90/138/162 91/139/163 92/140/164
f 93/141/165 94/142/166 95/143/167 96/144/168
f 49/97/169 51/100/170 52/99/171 50/98/172
f 53/101/173 55/104/174 56/103/175 54/102/176
f 57/105/177 59/108/178 60/107/179 58/106/180
f 61/109/181 63/112/182 64/111/183 62/110/184
f 65/113/185 67/116/186 68/115/187 66/114/188
f 69/117/189 71/120/190 72/119/191 70/118/192
f 49/73/193 50/74/194 74/122/195 73/121/196
f 50/74/197 52/76/198 75/123/199 74/122/200
f 52/76/201 51/75/202 76/124/203 75/123/204
f 51/75/205 49/73/206 73/121/207 76/124/208
f 53/77/209 54/78/210 78/126/211 77/125/212
f 54/78/213 56/79/214 79/127/215 78/126/216
f 56/79/217 55/80/218 80/128/219 79/127/220
f 55/80/221 53/77/222 77/125/223 80/128/224
f 57/81/225 58/82/226 82/130/227 81/129/228
f 58/82/229 60/83/230 83/131/231 82/130/232
f 60/83/233 59/84/234 84/132/235 83/131/236
f 59/84/237 57/81/238 81/129/239 84/132/240
f 61/85/241 62/86/242 86/134/243 85/133/244
f 62/86/245 64/87/246 87/135/247 86/134/248
f 64/87/249 63/88/250 88/136/251 87/135/252
f 63/88/253 61/85/254 85/133/255 88/136/256
f 65/89/257 66/90/258 90/138/259 89/137/260
f 66/90/261 68/91/262 91/139/263 90/138/264
f 68/91/265 67/92/266 92/140/267 91/139/268
f 67/92/269 65/89/270 89/137/271 92/140/272
f 69/93/273 70/94/274 94/142/275 93/141/276
f 70/94/277 72/95/278 95/143/279 94/142/280
f 72/95/281 71/96/282 96/144/283 95/143/284
f 71/96/285 69/93/286 93/141/287 96/144/288
