# This file uses centimeters as units for non-parametric coordinates.

mtllib HG_7.mtl
g default
v 0.508070 -0.189568 -0.106284
v 0.319172 -0.189568 -0.106284
v 0.013027 -0.955073 -0.106284
v 0.013027 -0.668325 -0.106284
v -0.508070 -0.189568 -0.106284
v -0.312659 -0.189568 -0.106284
v 0.508070 -0.189568 0.106284
v 0.319172 -0.189568 0.106284
v 0.013027 -0.668325 0.106284
v 0.013027 -0.955073 0.106284
v -0.312659 -0.189568 0.106284
v -0.508070 -0.189568 0.106284
vt 0.000000 0.000000
vt 1.000000 0.000000
vt 0.000000 1.000000
vt 1.000000 1.000000
vt 0.000000 0.000000
vt 1.000000 0.000000
vt 1.000000 1.000000
vt 0.000000 1.000000
vt 0.000000 0.000000
vt 1.000000 0.000000
vt 1.000000 1.000000
vt 0.000000 1.000000
vt 0.000000 0.000000
vt 1.000000 0.000000
vt 1.000000 1.000000
vt 0.000000 1.000000
vt 0.000000 0.000000
vt 1.000000 0.000000
vt 1.000000 1.000000
vt 0.000000 1.000000
vt 1.000000 0.000000
vt 1.000000 1.000000
vt 0.000000 1.000000
vt 0.000000 0.000000
vn 0.000000 0.000000 1.000000
vn 0.000000 0.000000 1.000000
vn 0.000000 0.000000 1.000000
vn -0.000000 0.000000 1.000000
vn -0.000000 0.000000 1.000000
vn -0.000000 0.000000 1.000000
vn 0.000000 0.000000 -1.000000
vn -0.000000 0.000000 -1.000000
vn -0.000000 0.000000 -1.000000
vn 0.000000 0.000000 -1.000000
vn -0.000000 0.000000 -1.000000
vn -0.000000 0.000000 -1.000000
vn 0.000000 1.000000 0.000000
vn 0.000000 1.000000 0.000000
vn 0.000000 1.000000 0.000000
vn 0.000000 1.000000 0.000000
vn -0.842479 0.538729 0.000000
vn -0.842479 0.538729 0.000000
vn -0.842479 0.538729 0.000000
vn -0.842479 0.538729 0.000000
vn 0.839712 -0.543031 0.000000
vn 0.839712 -0.543031 0.000000
vn 0.839712 -0.543031 0.000000
vn 0.839712 -0.543031 0.000000
vn 0.826822 0.562464 0.000000
vn 0.826822 0.562464 0.000000
vn 0.826822 0.562464 0.000000
vn 0.826822 0.562464 0.000000
vn 0.000000 1.000000 0.000000
vn 0.000000 1.000000 0.000000
vn 0.000000 1.000000 0.000000
vn 0.000000 1.000000 0.000000
vn -0.826649 -0.562719 0.000000
vn -0.826649 -0.562719 0.000000
vn -0.826649 -0.562719 0.000000
vn -0.826649 -0.562719 0.000000
s 1
g BOT HG_7
usemtl initialShadingGroup
f 7/17/1 8/18/2 9/19/3 10/20/4
f 10/24/4 9/21/3 11/22/5 12/23/6
s 2
f 1/9/7 3/12/8 4/11/9 2/10/10
f 3/13/8 5/16/11 6/15/12 4/14/9
s off
f 1/1/13 2/2/14 8/18/15 7/17/16
f 2/2/17 4/4/18 9/19/19 8/18/20
f 3/3/21 1/1/22 7/17/23 10/20/24
f 4/6/25 6/7/26 11/22/27 9/21/28
f 6/7/29 5/8/30 12/23/31 11/22/32
f 5/8/33 3/5/34 10/24/35 12/23/36
g default
v -0.319172 0.046266 -0.106284
v 0.013027 -0.494372 -0.106284
v -0.013027 0.440491 -0.106284
v 0.312659 0.046266 -0.106284
v -0.319172 0.046266 0.106284
v 0.013027 -0.494372 0.106284
v 0.312659 0.046266 0.106284
v -0.013027 0.440491 0.106284
vt 0.000000 0.000000
vt 1.000000 0.000000
vt 0.000000 1.000000
vt 1.000000 1.000000
vt 0.000000 0.000000
vt 1.000000 0.000000
vt 1.000000 1.000000
vt 0.000000 1.000000
vt 0.000000 0.000000
vt 1.000000 0.000000
vt 1.000000 1.000000
vt 0.000000 1.000000
vn 0.000000 0.000000 1.000000
vn 0.000000 0.000000 1.000000
vn 0.000000 0.000000 1.000000
vn 0.000000 0.000000 1.000000
vn 0.000000 0.000000 -1.000000
vn 0.000000 0.000000 -1.000000
vn 0.000000 0.000000 -1.000000
vn 0.000000 0.000000 -1.000000
vn -0.852011 -0.523524 0.000000
vn -0.852011 -0.523524 0.000000
vn -0.852011 -0.523524 0.000000
vn -0.852011 -0.523524 0.000000
vn 0.874653 -0.484749 0.000000
vn 0.874653 -0.484749 0.000000
vn 0.874653 -0.484749 0.000000
vn 0.874653 -0.484749 0.000000
vn 0.770941 0.636907 0.000000
vn 0.770941 0.636907 0.000000
vn 0.770941 0.636907 0.000000
vn 0.770941 0.636907 0.000000
vn -0.789813 0.613348 0.000000
vn -0.789813 0.613348 0.000000
vn -0.789813 0.613348 0.000000
vn -0.789813 0.613348 0.000000
s off
g HG_7 MID
usemtl initialShadingGroup
f 17/33/37 18/34/38 19/35/39 20/36/40
f 13/29/41 15/32/42 16/31/43 14/30/44
f 13/25/45 14/26/46 18/34/47 17/33/48
f 14/26/49 16/28/50 19/35/51 18/34/52
f 16/28/53 15/27/54 20/36/55 19/35/56
f 15/27/57 13/25/58 17/33/59 20/36/60
g default
v -0.508070 0.189568 -0.106284
v -0.319172 0.189568 -0.106284
v -0.013027 0.955073 -0.106284
v -0.013027 0.668325 -0.106284
v 0.508070 0.189568 -0.106284
v 0.312659 0.189568 -0.106284
v -0.508070 0.189568 0.106284
v -0.319172 0.189568 0.106284
v -0.013027 0.668325 0.106284
v -0.013027 0.955073 0.106284
v 0.312659 0.189568 0.106284
v 0.508070 0.189568 0.106284
vt 0.000000 0.000000
vt 1.000000 0.000000
vt 0.000000 1.000000
vt 1.000000 1.000000
vt 0.000000 0.000000
vt 1.000000 0.000000
vt 1.000000 1.000000
vt 0.000000 1.000000
vt 0.000000 0.000000
vt 1.000000 0.000000
vt 1.000000 1.000000
vt 0.000000 1.000000
vt 0.000000 0.000000
vt 1.000000 0.000000
vt 1.000000 1.000000
vt 0.000000 1.000000
vt 0.000000 0.000000
vt 1.000000 0.000000
vt 1.000000 1.000000
vt 0.000000 1.000000
vt 1.000000 0.000000
vt 1.000000 1.000000
vt 0.000000 1.000000
vt 0.000000 0.000000
vn -0.000000 0.000000 1.000000
vn -0.000000 0.000000 1.000000
vn -0.000000 0.000000 1.000000
vn 0.000000 0.000000 1.000000
vn 0.000000 0.000000 1.000000
vn 0.000000 0.000000 1.000000
vn -0.000000 0.000000 -1.000000
vn 0.000000 0.000000 -1.000000
vn 0.000000 0.000000 -1.000000
vn -0.000000 0.000000 -1.000000
vn 0.000000 0.000000 -1.000000
vn 0.000000 0.000000 -1.000000
vn 0.000000 -1.000000 0.000000
vn 0.000000 -1.000000 0.000000
vn 0.000000 -1.000000 0.000000
vn 0.000000 -1.000000 0.000000
vn 0.842479 -0.538729 0.000000
vn 0.842479 -0.538729 0.000000
vn 0.842479 -0.538729 0.000000
vn 0.842479 -0.538729 0.000000
vn -0.839712 0.543031 0.000000
vn -0.839712 0.543031 0.000000
vn -0.839712 0.543031 0.000000
vn -0.839712 0.543031 0.000000
vn -0.826822 -0.562464 0.000000
vn -0.826822 -0.562464 0.000000
vn -0.826822 -0.562464 0.000000
vn -0.826822 -0.562464 0.000000
vn 0.000000 -1.000000 0.000000
vn 0.000000 -1.000000 0.000000
vn 0.000000 -1.000000 0.000000
vn 0.000000 -1.000000 0.000000
vn 0.826649 0.562719 0.000000
vn 0.826649 0.562719 0.000000
vn 0.826649 0.562719 0.000000
vn 0.826649 0.562719 0.000000
s 1
g HG_7 TOP
usemtl initialShadingGroup
f 27/53/61 28/54/62 29/55/63 30/56/64
f 30/60/64 29/57/63 31/58/65 32/59/66
s 2
f 21/45/67 23/48/68 24/47/69 22/46/70
f 23/49/68 25/52/71 26/51/72 24/50/69
s off
f 21/37/73 22/38/74 28/54/75 27/53/76
f 22/38/77 24/40/78 29/55/79 28/54/80
f 23/39/81 21/37/82 27/53/83 30/56/84
f 24/42/85 26/43/86 31/58/87 29/57/88
f 26/43/89 25/44/90 32/59/91 31/58/92
f 25/44/93 23/41/94 30/60/95 32/59/96
